<svg xmlns="http://www.w3.org/2000/svg" viewBox="0 0 129.01 128.94"><defs><style>.cls-1{fill:#1888a5;}.cls-2{fill:#f4f9fa;}.cls-3{fill:#f4f9fb;}.cls-4{fill:#deaf37;}.cls-5{fill:#e0ae35;}.cls-6{fill:#ddae35;}.cls-7{fill:#e9b023;}.cls-8{fill:#d2aa3c;}.cls-9{fill:#d5ad39;}.cls-10{fill:#389289;}.cls-11{fill:#f0b020;}.cls-12{fill:#7f9a74;}.cls-13{fill:#288ea8;}.cls-14{fill:#2c8aa0;}</style></defs><g id="Layer_2" data-name="Layer 2"><g id="Layer_1-2" data-name="Layer 1"><path class="cls-1" d="M64.72,0c35-.14,64.35,28.7,64.29,64.59,0,34.08-27.16,64.37-64.57,64.35A64.47,64.47,0,1,1,64.72,0Zm-15,88c-.59.59-.85,1.16.11,1.65,2.44,0,4.89.15,7.32,0s3.14-1.73,3.13-3.83c0-2.28-1.74-1.9-3.17-1.94a14,14,0,0,1-2,0c-.82-.15-2.28.66-2.24-.94,0-1.27,1.34-.8,2.12-.84,1.46-.07,2.93,0,4.4,0,.9,0,1.59-.3,1.52-1.31S60,80,59.31,80c-3.71,0-7.43,0-11.14,0-.86,0-2.33-.45-2.26,1,0,1.09,1.45.48,2.22.7s2.68-.76,2.26,1.15c-.68,3,1.08,2.92,3,2.89,1.17,0,2.35-.06,3.51,0,1.84.12.77,1,.41,1.71-2.51.43-5.15-.64-7.59.61Zm-1.11-1.13c.56-1-.11-1.32-.83-1.16-2.23.51-4.81-1.27-6.75,1a3.78,3.78,0,0,1-.55.64,1.46,1.46,0,0,0-.58,1.75c.17.56.67.65,1.15.61,1-.08.59-.82.73-1.43.33-1.42,1.26-1,2.1-.35.1,1.46.11,1.53,1.91,1.39.73-.06,2.52.74,1.63-1.38ZM20.88,65.39h-.17c0,2.54.08,5.08,0,7.61-.07,1.65.48,2.22,2.16,2.18,5-.1,10,.06,14.94-.07a10.37,10.37,0,0,0,8.84-15.38,3.54,3.54,0,0,1,0-4.12,9.62,9.62,0,0,0-7.77-14.38c-5.36-.23-10.74,0-16.1-.08-2,0-2.13,1-1.55,2.4a6,6,0,0,0,5.87,4c3.42,0,6.84,0,10.25,0,2.31,0,4,1,4.06,3.25s-1.54,3.35-4,3.22c-2.63-.14-5.27-.09-7.91,0-1.48,0-2.46-.17-2.29-2s-1.15-1.78-2.3-1.28c-2.3,1-3.94,2.64-4,5.27C20.8,59.14,20.88,62.27,20.88,65.39ZM108.65,63c0-3.51-.07-7,0-10.54,0-2.11-.88-2.36-2.5-1.58a6.42,6.42,0,0,0-3.88,5.77c-.1,2.14-.06,4.29-.07,6.44,0,5.57,0,5.57-5.46,5.56-6,0-8.79-2.68-8.84-8.68,0-4.2,0-8.4,0-12.6,0-2.78-1.48-4.54-3.86-5.69-1.78-.86-2.64-.56-2.6,1.7.11,6,0,12.11.06,18.16A13.56,13.56,0,0,0,95.11,75.12c3.71.07,7.42-.08,11.13.07,2,.07,2.52-.64,2.44-2.52C108.55,69.45,108.65,66.23,108.65,63Zm-43,12.15c3.21,0,6.43.08,9.64-.05,1.25,0,3.12.88,3.65-.66s-.83-3.09-2.06-4.23a5.69,5.69,0,0,0-4-1.53c-4.87,0-9.74,0-14.61,0-2.87,0-4.67,1.69-5.8,4.18-.66,1.47-.5,2.35,1.48,2.3C57.82,75.08,61.72,75.15,65.62,75.15Zm-7-18.8c0-2.73.07-5.47,0-8.2-.11-3.34-1.75-5.63-4.41-6.61-1.44-.54-2.22-.39-2.21,1.38,0,5.66-.11,11.33.08,17a6,6,0,0,0,4.58,5.81c1.22.37,2.06.19,2-1.45C58.51,61.62,58.58,59,58.58,56.35ZM102.45,80c-4.36,0-4.36,0-5,3.5-1.33,6.83-1.18,7,6,6.27,3.49-.36,5.29-2.65,5.1-6.79-.16-3.57-2.94-2.86-5.18-3Zm-41,7.94c0,.95-.26,1.65.6,1.8.63.11,1.27-.07,1.33-.78.2-2.67,2.15-2.15,3.83-2.2a26.91,26.91,0,0,0,3.48-.27c1.67-.25,2-1.61,2.36-3,.26-1.07.46-2.11-.56-2.94-.7-.57-8.44-.92-9.16-.35a1.72,1.72,0,0,0-.58,1C62.25,83.52,61.82,85.91,61.44,87.9Zm17.83-4a16.6,16.6,0,0,1-2.34,0c-2.2-.33-3.27.48-3.35,2.77s1.31,2.89,3.1,3,3.32,0,5,0c.8,0,1.65.08,1.73-1,.09-1.28-.9-1-1.63-1-1.56,0-3.12,0-4.68-.1-.72,0-1.4-.33-1.29-1.23s.85-.65,1.38-.66c1.86,0,3.71,0,5.57,0,.64,0,1.23-.12,1.27-.87s-.62-.85-1.22-.85Zm11.56,0a19.08,19.08,0,0,1-2.62,0c-1.9-.26-2.79.34-2.92,2.41s.64,3.21,2.62,3.37,3.7,0,5.54.06c.87,0,1.61-.2,1.56-1.25s-.9-.82-1.55-.84c-1.55,0-3.11,0-4.66-.07-.7,0-1.41-.28-1.29-1.2s.82-.7,1.37-.71c1.75,0,3.5,0,5.25,0,.72,0,1.46,0,1.44-1,0-1.13-.95-.7-1.53-.74C93,83.88,91.9,83.92,90.83,83.92ZM108.48,45c1-3.47-.47-4.34-3-3.81-1,.21-3-1.25-3,1.27,0,2.06,3,5.07,5,5C109.83,47.46,108.2,45.44,108.48,45ZM74.74,82.12c3.16,0,5.88,0,8.59,0,.72,0,1.38-.11,1.53-1a.92.92,0,0,0-.38-1C83.12,79.15,76.39,80.27,74.74,82.12Zm11.69,0c3.06,0,5.83,0,8.59,0a1.29,1.29,0,0,0,1.48-1.4c0-.94-1-.77-1.61-.78-1.74,0-3.5-.09-5.24,0A3.3,3.3,0,0,0,86.43,82.11Zm-42.26.6v0c-1.46,0-2.91,0-4.36,0-.53,0-1,.33-.89.88a1.13,1.13,0,0,0,.8.7c2.81,0,5.61,0,8.42,0a.88.88,0,0,0,.9-.92c0-.63-.62-.66-1.09-.67C46.69,82.69,45.43,82.71,44.17,82.71Z"/><path class="cls-2" d="M20.88,65.39c0-3.12-.08-6.25,0-9.36.09-2.63,1.73-4.29,4-5.27,1.15-.5,2.47-.67,2.3,1.28s.81,2.05,2.29,2c2.64-.08,5.28-.13,7.91,0,2.41.13,4-1,4-3.22s-1.75-3.29-4.06-3.25c-3.41,0-6.83,0-10.25,0a6,6,0,0,1-5.87-4c-.58-1.37-.47-2.43,1.55-2.4,5.36.08,10.74-.15,16.1.08a9.62,9.62,0,0,1,7.77,14.38,3.54,3.54,0,0,0,0,4.12,10.37,10.37,0,0,1-8.84,15.38c-5,.13-10,0-14.94.07-1.68,0-2.23-.53-2.16-2.18.11-2.53,0-5.07,0-7.61ZM33,68.67c1.37,0,2.74,0,4.1,0a4.05,4.05,0,0,0,4.43-3.78c.34-2.14-1.69-4.09-4.27-4.23-2.14-.12-4.31.09-6.45-.08-2.87-.22-3.8,1-3.69,3.79.2,5.15-.52,4.19,4.41,4.3C32,68.68,32.46,68.67,33,68.67Z"/><path class="cls-3" d="M108.65,63c0,3.23-.1,6.45,0,9.67.08,1.88-.47,2.59-2.44,2.52-3.71-.15-7.42,0-11.13-.07A13.56,13.56,0,0,1,81.52,61.54c-.1-6,0-12.11-.06-18.16,0-2.26.82-2.56,2.6-1.7,2.38,1.15,3.86,2.91,3.86,5.69,0,4.2,0,8.4,0,12.6,0,6,2.81,8.68,8.84,8.68,5.46,0,5.46,0,5.46-5.56,0-2.15,0-4.3.07-6.44a6.42,6.42,0,0,1,3.88-5.77c1.62-.78,2.55-.53,2.5,1.58C108.58,56,108.65,59.49,108.65,63Z"/><path class="cls-2" d="M65.62,75.15c-3.9,0-7.8-.07-11.7,0-2,0-2.14-.83-1.48-2.3,1.13-2.49,2.93-4.15,5.8-4.18,4.87-.06,9.74,0,14.61,0a5.69,5.69,0,0,1,4,1.53c1.23,1.14,2.63,2.57,2.06,4.23s-2.4.61-3.65.66C72.05,75.23,68.83,75.15,65.62,75.15Z"/><path class="cls-3" d="M58.58,56.35c0,2.64-.07,5.27,0,7.91.06,1.64-.78,1.82-2,1.45A6,6,0,0,1,52,59.9c-.19-5.65,0-11.32-.08-17,0-1.77.77-1.92,2.21-1.38,2.66,1,4.3,3.27,4.41,6.61C58.65,50.88,58.58,53.62,58.58,56.35Z"/><path class="cls-4" d="M57.35,87.39c.36-.69,1.43-1.59-.41-1.71-1.16-.08-2.34,0-3.51,0-2,0-3.72.12-3-2.89.42-1.91-1.42-.91-2.26-1.15s-2.18.39-2.22-.7c-.07-1.4,1.4-.93,2.26-1,3.71,0,7.43,0,11.14,0,.64,0,1.51-.18,1.58.82s-.62,1.32-1.52,1.31c-1.47,0-2.94,0-4.4,0-.78,0-2.09-.43-2.12.84,0,1.6,1.42.79,2.24.94a14,14,0,0,0,2,0c1.43,0,3.17-.34,3.17,1.94,0,2.1-.81,3.72-3.13,3.83s-4.88,0-7.32,0c0-.55-.07-1.1-.11-1.65h0C52.27,87.59,54.91,88.69,57.35,87.39Z"/><path class="cls-5" d="M102.45,80h.87c2.24.12,5-.59,5.18,3,.19,4.14-1.61,6.43-5.1,6.79-7.17.72-7.32.56-6-6.27C98.09,80,98.09,80,102.45,80Zm.74,2.12c-3.35,0-4.21.92-4.12,4.32.05,2,1.66,1.2,2.59,1.23,3.62.12,4.38-.62,4.57-3.63S104.25,82.45,103.19,82.08Z"/><path class="cls-6" d="M61.44,87.9c.38-2,.81-4.38,1.3-6.76a1.72,1.72,0,0,1,.58-1c.72-.57,8.46-.22,9.16.35,1,.83.82,1.87.56,2.94-.32,1.36-.69,2.72-2.36,3a26.91,26.91,0,0,1-3.48.27c-1.68,0-3.63-.47-3.83,2.2-.06.71-.7.89-1.33.78C61.18,89.55,61.46,88.85,61.44,87.9Zm5.58-3c.64,0,1.13,0,1.61,0,1.12-.06,2.21-.21,2.22-1.7,0-1.68-1.3-1-2.13-1.12s-1.94,0-2.91,0c-1.54-.06-1.53,1.11-1.33,2C64.84,85.64,66.27,84.61,67,84.93Z"/><path class="cls-4" d="M79.27,83.92h3.52c.6,0,1.26,0,1.22.85s-.63.87-1.27.87c-1.86,0-3.71,0-5.57,0-.53,0-1.28-.18-1.38.66s.57,1.2,1.29,1.23c1.56.08,3.12,0,4.68.1.73,0,1.72-.24,1.63,1-.08,1.12-.93,1-1.73,1-1.66,0-3.33.09-5,0s-3.19-.77-3.1-3,1.15-3.1,3.35-2.77A16.6,16.6,0,0,0,79.27,83.92Z"/><path class="cls-4" d="M90.83,83.92c1.07,0,2.15,0,3.21,0,.58,0,1.52-.39,1.53.74,0,.95-.72,1-1.44,1-1.75,0-3.5,0-5.25,0-.55,0-1.26-.08-1.37.71s.59,1.17,1.29,1.2c1.55.07,3.11,0,4.66.07.65,0,1.5-.17,1.55.84s-.69,1.26-1.56,1.25c-1.84,0-3.7.08-5.54-.06s-2.75-1.29-2.62-3.37,1-2.67,2.92-2.41A19.08,19.08,0,0,0,90.83,83.92Z"/><path class="cls-7" d="M108.48,45c-.28.4,1.35,2.42-1,2.48-2,0-5-3-5-5,0-2.52,2-1.06,3-1.27C108,40.7,109.44,41.57,108.48,45Z"/><path class="cls-8" d="M74.74,82.12c1.65-1.85,8.38-3,9.74-2a.92.92,0,0,1,.38,1c-.15.88-.81,1-1.53,1C80.62,82.11,77.9,82.12,74.74,82.12Z"/><path class="cls-8" d="M86.43,82.11A3.3,3.3,0,0,1,89.65,80c1.74-.12,3.5,0,5.24,0,.65,0,1.57-.16,1.61.78A1.29,1.29,0,0,1,95,82.12C92.26,82.09,89.49,82.11,86.43,82.11Z"/><path class="cls-9" d="M44.17,82.71c1.26,0,2.52,0,3.78,0,.47,0,1,0,1.09.67a.88.88,0,0,1-.9.92c-2.81,0-5.61,0-8.42,0a1.13,1.13,0,0,1-.8-.7c-.09-.55.36-.87.89-.88,1.45,0,2.9,0,4.36,0Z"/><path class="cls-10" d="M43.91,88c-.84-.64-1.77-1.07-2.1.35-.14.61.29,1.35-.73,1.43-.48,0-1,0-1.15-.61a1.46,1.46,0,0,1,.58-1.75,3.78,3.78,0,0,0,.55-.64l7.58.13L47.45,88Z"/><path class="cls-11" d="M48.64,86.88l-7.58-.13c1.94-2.3,4.52-.52,6.75-1C48.53,85.56,49.2,85.9,48.64,86.88Z"/><path class="cls-5" d="M43.91,88h3.54c.89,2.12-.9,1.32-1.63,1.38C44,89.5,44,89.43,43.91,88Z"/><path class="cls-12" d="M57.35,87.39c-2.44,1.3-5.08.2-7.59.61C52.2,86.75,54.84,87.82,57.35,87.39Z"/><path class="cls-12" d="M49.75,88c0,.55.07,1.1.11,1.65C48.9,89.17,49.16,88.6,49.75,88Z"/><path class="cls-13" d="M33,68.67c-.49,0-1,0-1.47,0-4.93-.11-4.21.85-4.41-4.3-.11-2.75.82-4,3.69-3.79,2.14.17,4.31,0,6.45.08,2.58.14,4.61,2.09,4.27,4.23a4.05,4.05,0,0,1-4.43,3.78C35.69,68.65,34.32,68.67,33,68.67Z"/><path class="cls-14" d="M103.19,82.08c1.06.37,3.23-1,3,1.92s-1,3.75-4.57,3.63c-.93,0-2.54.82-2.59-1.23C99,83,99.84,82.08,103.19,82.08Z"/><path class="cls-14" d="M67,84.93c-.75-.32-2.18.71-2.54-.86-.2-.87-.21-2,1.33-2,1,0,2-.08,2.91,0s2.15-.56,2.13,1.12c0,1.49-1.1,1.64-2.22,1.7C68.15,85,67.66,84.93,67,84.93Z"/></g></g></svg>